<?xml version="1.0" encoding="utf-8"?>
<svg viewBox="0 0 500 500" xmlns="http://www.w3.org/2000/svg">
  <defs>
    <linearGradient id="paint0_linear" x1="52.8693" y1="113.413" x2="124.878" y2="30.6507" gradientUnits="userSpaceOnUse" gradientTransform="matrix(1, 0, 0, 1, 340.471375, 252.765961)">
      <stop stop-color="#FF5858"/>
      <stop offset="1" stop-color="#F857A6"/>
    </linearGradient>
  </defs>
  <g transform="matrix(1, 0, 0, 1, -29.725842, -149.264282)">
    <g transform="matrix(1, 0, 0, 1, -153.211273, 33.390045)">
      <g>
        <g>
          <path fill-rule="evenodd" clip-rule="evenodd" d="M 382.938 253.767 L 392.929 253.767 C 409.483 253.767 422.902 267.198 422.902 283.767 L 422.902 293.767 C 422.902 310.335 409.483 323.767 392.929 323.767 L 382.938 323.767 C 366.384 323.767 352.965 310.335 352.965 293.767 L 352.965 283.767 C 352.965 267.198 366.384 253.767 382.938 253.767 Z" fill="url(#paint0_linear)"/>
        </g>
      </g>
    </g>
    <g transform="matrix(0.542218, 0, 0, 0.55856, 61.01638, 175.728958)" style="">
      <ellipse style="fill: rgb(255, 255, 255); stroke: rgb(255, 255, 255);" cx="281.709" cy="250.82" rx="17.397" ry="29.442" transform="matrix(0.829488, -0.558524, 0.558524, 0.829488, -63.802138, 213.586976)"/>
      <ellipse style="fill: rgb(255, 255, 255); stroke: rgb(255, 255, 255);" cx="336.649" cy="253.027" rx="17.397" ry="29.966" transform="matrix(0.845028, 0.534722, -0.534722, 0.845028, 182.335602, -129.870107)"/>
    </g>
  </g>
  <path fill-rule="evenodd" clip-rule="evenodd" d="M64.9886 31.8585C64.9943 31.9607 64.9869 32.0644 64.9614 32.1687L62.6811 41.3348C62.5661 41.7961 62.1543 42.1214 61.6809 42.1241L47.9996 42.1934C47.9979 42.1934 47.9962 42.1934 47.9944 42.1934H34.3131C33.8371 42.1934 33.4224 41.8671 33.3075 41.4031L31.0273 32.202C31.0009 32.0956 30.9934 31.9886 31.0001 31.8838C30.1179 31.6047 29.4764 30.7752 29.4764 29.7977C29.4764 28.5908 30.4527 27.6096 31.6529 27.6096C32.8531 27.6096 33.8294 28.5908 33.8294 29.7977C33.8294 30.4768 33.5197 31.0843 33.0348 31.4864L35.8896 34.3768C36.6112 35.1074 37.6123 35.5268 38.6366 35.5268C39.8478 35.5268 41.0025 34.9483 41.7297 33.98L46.4214 27.7321C46.0273 27.3365 45.7832 26.7897 45.7832 26.1865C45.7832 24.98 46.7595 23.9983 47.9597 23.9983C49.1599 23.9983 50.1363 24.98 50.1363 26.1865C50.1363 26.7714 49.9052 27.302 49.5317 27.695C49.5329 27.6967 49.5345 27.6983 49.5357 27.6999L54.1933 33.9649C54.9203 34.9424 56.0791 35.5268 57.2937 35.5268C58.3275 35.5268 59.2996 35.1219 60.0304 34.3875L62.9032 31.4999C62.4081 31.0983 62.09 30.4854 62.09 29.7977C62.09 28.5908 63.0664 27.6096 64.2666 27.6096C65.4668 27.6096 66.4432 28.5908 66.4432 29.7977C66.4432 30.7488 65.8344 31.5585 64.9886 31.8585ZM62.4586 45.4569C62.4586 44.8821 61.9945 44.4155 61.4222 44.4155H34.6126C34.0402 44.4155 33.5761 44.8821 33.5761 45.4569V47.9569C33.5761 48.5327 34.0402 48.9988 34.6126 48.9988H61.4222C61.9945 48.9988 62.4586 48.5327 62.4586 47.9569V45.4569Z" fill="white" transform="matrix(1, 0, 0, 1, 104.686394, 240.073746)"/>
</svg>